<?xml version="1.0" encoding="utf-8"?>
<!-- Generator: Adobe Illustrator 26.3.1, SVG Export Plug-In . SVG Version: 6.00 Build 0)  -->
<svg version="1.1" xmlns="http://www.w3.org/2000/svg" xmlns:xlink="http://www.w3.org/1999/xlink" x="0px" y="0px" width="32px" height="32px"
	 viewBox="0 0 32 32" style="enable-background:new 0 0 32 32;" xml:space="preserve">
<style type="text/css">
	.st0{fill:#FFFFFF;}
	.st1{fill:#020000;}
</style>
<g id="Background">
	<path class="st0" d="M27.5,30.9H4.5c-2.2,0-4-1.8-4-4V4.8c0-2.2,1.8-4,4-4h23.1c2.2,0,4,1.8,4,4v22.1
		C31.5,29.1,29.7,30.9,27.5,30.9z"/>
</g>
<g id="Layer_1">
	<g>
		<path class="st1" d="M19.3,14.1c0-0.4,0.4-0.6,0.9-0.6c0.6,0,1.1,0.2,1.1,0.9h2.3c0-1.9-1.6-2.9-3.4-2.9c-1.6,0-3.2,0.8-3.2,2.8
			c0,3.2,4.4,2.5,4.4,3.6c0,0.5-0.6,0.6-1.1,0.6c-0.8,0-1.2-0.3-1.2-1.1h-2.3c0,2.1,1.6,3.2,3.5,3.2c1.6,0,3.4-0.8,3.4-2.8
			C23.8,14.4,19.3,15.1,19.3,14.1"/>
		<path class="st1" d="M15.9,16.9v-5.4h-2.3v5.4c0,1-0.5,1.6-1.4,1.6c-0.9,0-1.4-0.6-1.4-1.6v-5.4H8.5v5.4c0,2.3,1.5,3.7,3.7,3.7
			S15.9,19.2,15.9,16.9"/>
		<path class="st1" d="M7.4,17.3v-5.9H5.1l0,6c0,0.6-0.3,1-0.9,1S3.3,18,3.3,17.1H1c0,2,1.1,3.4,3.2,3.4S7.4,19.4,7.4,17.3"/>
		<polygon class="st1" points="24.4,11.5 24.4,13.6 26.5,13.6 26.5,20.5 28.8,20.5 28.8,13.6 31,13.6 31,11.5 		"/>
	</g>
</g>
</svg>
