<svg xmlns="http://www.w3.org/2000/svg" width="575.022" height="171.609" viewBox="0 0 575.022 171.609">
  <g id="JUST-COLORED" transform="translate(0 0.026)">
    <path id="Path_1" data-name="Path 1" d="M223.148,0h44.468c.013.664.032,1.329.032,1.987q0,50.7.013,101.388a35.995,35.995,0,0,0,2.153,12.452c2.818,7.712,7.993,13.078,15.941,15.5a31.79,31.79,0,0,0,13.187,1.054c9.673-1.156,16.65-5.987,20.554-15a37.831,37.831,0,0,0,2.792-15.244V1.67c0-.562-.045-1.118-.07-1.68h44.774c-.026.664-.07,1.323-.07,1.987q0,48.4-.006,96.794c0,2.651-.051,5.3-.128,7.954a78.669,78.669,0,0,1-3.175,20.042c-3.738,12.631-10.484,23.288-20.886,31.511a67.806,67.806,0,0,1-27.4,12.682,14.9,14.9,0,0,0-1.693.613H276.216a11.026,11.026,0,0,0-1.361-.581c-2.933-.85-5.935-1.508-8.81-2.524-17.142-6.07-29.652-17.219-36.922-33.99a77.487,77.487,0,0,1-6.05-31.159q-.038-50.831,0-101.656c0-.556.064-1.118.1-1.674Z" transform="translate(-80.545 -0.01)" fill="none"/>
    <path id="Path_2" data-name="Path 2" d="M562.62,171.588H526.432a9.364,9.364,0,0,0-1.489-.613,69.222,69.222,0,0,1-23.531-9.967,53.658,53.658,0,0,1-18.752-21.787,61.561,61.561,0,0,1-5.7-24.413c-.032-.952,0-1.9,0-2.965h43.854c.032.422.051.767.089,1.112.217,1.821.307,3.667.677,5.456a16.662,16.662,0,0,0,6.127,10.127,20.757,20.757,0,0,0,8.766,3.814,42.479,42.479,0,0,0,11.73.7,34.3,34.3,0,0,0,9.417-1.885,14.509,14.509,0,0,0,5.75-3.674c2.588-2.8,3.476-8.172-.319-11.564a24.126,24.126,0,0,0-4.492-3.143,62.594,62.594,0,0,0-12.293-4.613c-8.255-2.466-16.554-4.785-24.758-7.4a83.47,83.47,0,0,1-19.666-9.117,47.253,47.253,0,0,1-15.979-16.19c-4.249-7.367-5.846-15.4-5.942-23.774a57.21,57.21,0,0,1,1.457-13.66A45.891,45.891,0,0,1,496.372,12.98,58.673,58.673,0,0,1,520.356.9c1.016-.262,2.013-.594,3.016-.894h35.881a2.218,2.218,0,0,0,.517.268,67.292,67.292,0,0,1,19.448,7.169,52.023,52.023,0,0,1,21.876,22.681,56.21,56.21,0,0,1,5.354,19.359c.173,1.7.224,3.418.332,5.194H562.645c-.16-1.3-.243-2.53-.479-3.718-1.112-5.718-4.69-9.3-10.082-11.072a35.179,35.179,0,0,0-18.745-.741,15.511,15.511,0,0,0-6.1,2.735c-3.635,2.722-5.277,9.52.211,13.2a25.246,25.246,0,0,0,5.245,2.8c3.725,1.367,7.526,2.562,11.341,3.674,7.584,2.211,15.244,4.178,22.8,6.5a81.247,81.247,0,0,1,21.435,9.961c9.188,6.14,15.813,14.248,19.014,24.924a56.467,56.467,0,0,1,1.546,25.748c-2.14,12.957-8.7,23.269-19.263,31.044a68.613,68.613,0,0,1-25.428,11.251,10.587,10.587,0,0,0-1.521.6Z" transform="translate(-172.223 -0.017)" fill="none"/>
    <path id="Path_3" data-name="Path 3" d="M76.975,0H121.75c.013.664.032,1.329.032,1.987q0,54.138-.013,108.275c0,2.754-.121,5.507-.294,8.255a67.7,67.7,0,0,1-3.674,18.241,51.2,51.2,0,0,1-15.87,23.2,56.294,56.294,0,0,1-22.822,11.015,11.047,11.047,0,0,0-1.527.613H0V107.543c.153-.013.307-.026.46-.026H42c.339,0,.684.064,1.227.115,0,1.329-.058,2.6.013,3.859a34.665,34.665,0,0,0,2.4,11.781c2.019,4.8,5.456,7.922,10.644,8.964a20.636,20.636,0,0,0,7.769.083,14.265,14.265,0,0,0,10.152-6.7,18.9,18.9,0,0,0,2.754-8.67c.2-2.894.217-5.808.211-8.708-.013-9.187-.089-18.369-.115-27.556q-.048-15.851-.058-31.7-.01-10.571-.006-21.135,0-13.935-.013-27.869Z" transform="translate(0 -0.01)" fill="none"/>
    <g id="Component_22_4" data-name="Component 22 – 4" transform="translate(351.684 -0.001)">
      <path id="Path_4" data-name="Path 4" d="M589.16,171.592a10.578,10.578,0,0,1,1.521-.6,68.613,68.613,0,0,0,25.428-11.251c10.561-7.775,17.116-18.094,19.263-31.044a56.468,56.468,0,0,0-1.546-25.748C630.619,92.272,624,84.164,614.812,78.024a81.249,81.249,0,0,0-21.435-9.961c-7.552-2.326-15.212-4.287-22.8-6.5-3.814-1.112-7.609-2.306-11.341-3.674a25.247,25.247,0,0,1-5.245-2.8c-5.488-3.68-3.846-10.478-.211-13.2a15.43,15.43,0,0,1,6.1-2.735,35.179,35.179,0,0,1,18.746.741c5.392,1.776,8.964,5.354,10.082,11.072.23,1.195.313,2.415.479,3.718h44.136c-.109-1.776-.16-3.495-.332-5.194a56.21,56.21,0,0,0-5.354-19.359A51.987,51.987,0,0,0,605.759,7.457,67.223,67.223,0,0,0,586.311.288a2.219,2.219,0,0,1-.518-.268h62.255a8.729,8.729,0,0,0-.1.907V37.543c0,.339.077.677.128,1.144H689.52V169.771c0,.613-.045,1.22-.07,1.834H589.167Z" transform="translate(-550.448 -0.02)" fill="#c6f250"/>
    </g>
    <path id="Path_5" data-name="Path 5" d="M744.547,171.584c.026-.613.07-1.22.07-1.834V38.667h-41.44a10.387,10.387,0,0,1-.128-1.144V.907a8.712,8.712,0,0,1,.1-.907H828.882V38.609c-.613.013-1.227.032-1.84.032h-37.8v131.11c0,.613.045,1.22.07,1.834H744.54Z" transform="translate(-253.867 -0.014)" fill="none"/>
    <g id="Component_18_4" data-name="Component 18 – 4" transform="translate(0.422 -0.026)">
      <path id="Path_6" data-name="Path 6" d="M76.975,0q0,13.935.013,27.869,0,10.571.006,21.135.019,15.851.058,31.7c.026,9.187.1,18.369.115,27.556,0,2.907-.013,5.814-.211,8.708a18.922,18.922,0,0,1-2.754,8.67,14.265,14.265,0,0,1-10.152,6.7,20.767,20.767,0,0,1-7.769-.083c-5.188-1.035-8.625-4.166-10.644-8.964a34.633,34.633,0,0,1-2.4-11.781c-.064-1.259-.013-2.53-.013-3.859-.543-.051-.888-.115-1.227-.115H.46c-.153,0-.307.019-.46.026V0Z" transform="translate(0)" fill="#c6f250"/>
    </g>
    <g id="Component_21_4" data-name="Component 21 – 4" transform="translate(233.067 -0.02)">
      <path id="Path_7" data-name="Path 7" d="M482.866,0c-1,.3-2,.633-3.016.894a58.673,58.673,0,0,0-23.984,12.075,45.935,45.935,0,0,0-14.989,25.045,56.882,56.882,0,0,0-1.457,13.66c.1,8.376,1.7,16.413,5.942,23.774a47.309,47.309,0,0,0,15.979,16.19,83.721,83.721,0,0,0,19.665,9.117c8.2,2.626,16.5,4.945,24.758,7.4a62.194,62.194,0,0,1,12.293,4.613,24.123,24.123,0,0,1,4.491,3.143c3.8,3.393,2.907,8.772.319,11.564a14.4,14.4,0,0,1-5.75,3.674,34.583,34.583,0,0,1-9.417,1.885,42.743,42.743,0,0,1-11.73-.7,20.749,20.749,0,0,1-8.766-3.814,16.621,16.621,0,0,1-6.127-10.127c-.377-1.789-.466-3.635-.677-5.456-.038-.345-.057-.69-.089-1.112H436.456c0,1.054-.032,2.013,0,2.965a61.561,61.561,0,0,0,5.7,24.413,53.747,53.747,0,0,0,18.752,21.787,69.094,69.094,0,0,0,23.531,9.967,10.3,10.3,0,0,1,1.489.613H364.79a13.767,13.767,0,0,1,1.693-.613,67.891,67.891,0,0,0,27.4-12.682c10.4-8.223,17.148-18.88,20.886-31.511a78.58,78.58,0,0,0,3.175-20.042c.077-2.651.128-5.3.128-7.954q.01-48.4.006-96.794c0-.664.045-1.323.07-1.987H482.86Z" transform="translate(-364.79 0.01)" fill="#c6f250"/>
    </g>
    <g id="Component_20_4" data-name="Component 20 – 4" transform="translate(187.059 -0.014)">
      <path id="Path_8" data-name="Path 8" d="M347.381,0c.026.562.07,1.118.07,1.68V102.148a37.722,37.722,0,0,1-2.792,15.244c-3.9,9.009-10.881,13.832-20.554,15a31.8,31.8,0,0,1-13.187-1.054c-7.948-2.421-13.123-7.788-15.941-15.5a36.147,36.147,0,0,1-2.153-12.452q-.029-50.7-.013-101.388c0-.664-.019-1.329-.032-1.987h54.588Z" transform="translate(-292.78)" fill="#c6f250"/>
    </g>
    <g id="Component_23_4" data-name="Component 23 – 4" transform="translate(535.384 38.595)">
      <path id="Path_9" data-name="Path 9" d="M838.04,193.405c-.026-.613-.07-1.22-.07-1.834V60.462h37.8c.613,0,1.227-.019,1.84-.032V193.405H838.047Z" transform="translate(-837.97 -60.43)" fill="#c6f250"/>
    </g>
    <g id="Component_19_4" data-name="Component 19 – 4" transform="translate(77.589 -0.014)">
      <path id="Path_10" data-name="Path 10" d="M121.44,171.584a12.092,12.092,0,0,1,1.527-.613,56.373,56.373,0,0,0,22.822-11.015,51.105,51.105,0,0,0,15.87-23.2,67.7,67.7,0,0,0,3.674-18.241c.173-2.747.294-5.5.294-8.255q.029-54.138.013-108.275c0-.664-.019-1.329-.032-1.987h20.854c-.032.556-.1,1.118-.1,1.674q0,50.831,0,101.656a77.488,77.488,0,0,0,6.05,31.159c7.271,16.765,19.787,27.92,36.922,33.99,2.875,1.016,5.872,1.68,8.811,2.524a11.021,11.021,0,0,1,1.361.581H121.44Z" transform="translate(-121.44 0)" fill="#c6f250"/>
    </g>
  </g>
</svg>
