<?xml version="1.0" encoding="UTF-8"?><svg id="Layer_1" xmlns="http://www.w3.org/2000/svg" viewBox="0 0 19 17.53"><defs><style>.cls-1{fill:#e838bb;}</style></defs><path class="cls-1" d="M12.39,7.06h0Z"/><path class="cls-1" d="M17.7,7.63c-1.57-.04-3.46-.13-5.69-.25,.12-.11,.25-.21,.38-.32,.8-.69,1.99-1.74,3.57-3.17,.17-.16,.48-.41,.91-.77h0c.27-.22,.45-.55,.48-.9s-.07-.7-.29-.98c-.22-.27-.55-.45-.9-.48-.35-.03-.7,.07-.98,.3-.47,.38-.8,.67-1.01,.85h0c-1.29,1.17-2.32,2.09-3.07,2.74,.12-1.63,.2-2.72,.22-3.26h0c.02-.48-.21-.93-.61-1.18-.4-.26-.91-.28-1.33-.06-.42,.22-.7,.65-.72,1.12-.03,.61-.12,1.91-.28,3.93-.3-.35-.5-.58-.6-.68-.89-1.01-1.56-1.75-2.02-2.22-.24-.26-.58-.41-.93-.42-.35,0-.7,.12-.95,.37-.26,.24-.41,.58-.41,.93s.12,.7,.37,.95c.43,.46,1.09,1.18,1.96,2.16l.02,.02c.09,.1,.31,.35,.64,.74-1.57-.1-3.25-.22-5.03-.35h0c-.47-.03-.93,.19-1.2,.58-.27,.39-.3,.9-.1,1.33,.21,.43,.63,.71,1.1,.75,1.29,.09,2.52,.18,3.69,.26-.43,.31-.87,.62-1.33,.95-.64,.45-1.3,.86-1.98,1.23-.42,.22-.69,.65-.72,1.12-.02,.47,.21,.92,.61,1.18,.4,.26,.91,.28,1.33,.06,.78-.42,1.54-.89,2.27-1.4h0c1.03-.72,1.98-1.41,2.84-2.07-.07,.82-.14,1.69-.22,2.61h0c-.09,1.01-.08,2.03,.01,3.04,.04,.35,.21,.67,.48,.9,.27,.22,.62,.33,.98,.29,.35-.04,.67-.21,.9-.48,.22-.27,.33-.62,.29-.98-.08-.85-.08-1.7,0-2.55,.05-.61,.1-1.19,.15-1.75,.22,.24,.44,.48,.66,.72h0c.72,.77,1.31,1.35,1.76,1.76l.04,.03c.41,.35,.91,.58,1.44,.68,.35,.06,.71-.01,1-.21,.29-.2,.49-.51,.55-.86,.06-.35-.01-.71-.22-1-.2-.29-.51-.49-.86-.55-.08-.02-.15-.06-.21-.11-.39-.35-.91-.87-1.55-1.56-.18-.19-.36-.39-.53-.58,1.94,.1,3.61,.17,5.03,.21h0c.35,.01,.7-.12,.95-.36,.26-.24,.41-.58,.42-.93,0-.35-.12-.7-.36-.95-.24-.26-.58-.41-.93-.42h0Z"/></svg>