<?xml version="1.0" encoding="utf-8"?>
<!-- Generator: Adobe Illustrator 26.3.1, SVG Export Plug-In . SVG Version: 6.00 Build 0)  -->
<svg version="1.1" id="Layer_1" xmlns="http://www.w3.org/2000/svg" xmlns:xlink="http://www.w3.org/1999/xlink" x="0px" y="0px"
	 viewBox="0 0 891.1 208.2" style="enable-background:new 0 0 891.1 208.2;" xml:space="preserve">
<style type="text/css">
	.st0{fill:#020000;}
</style>
<polyline class="st0" points="694.1,0 758.1,0 758.1,208.2 827,208.2 827,0 891.1,0 "/>
<path class="st0" d="M544.2,16.8c0-12.4,13.1-16.4,26.5-16.4c17.1,0,32.7,5.8,32.7,25.4h68.3c-0.2-9.3-1.5-17.9-3.9-25.8H478.4
	c-1.4,6.3-2.2,13-2.2,20.4c0,94.1,131.9,75.2,131.9,108.3c0,13.8-17.8,17.8-31.6,17.8c-23.6,0-37.1-9.8-37.1-33.1h-68
	c0,61.8,46.2,94.8,105,94.8c46.9,0,99.6-24.7,99.6-82.8C676.1,27.3,544.2,48.1,544.2,16.8"/>
<path class="st0" d="M443.6,99.6V0h-68.9v98.8c0,28.4-15.1,46.8-42,46.8s-42-18.4-42-46.8V0h-68.9v99.6
	c0,67.8,43.8,108.6,110.9,108.6S443.5,167.3,443.6,99.6"/>
<path class="st0" d="M190.1,112.8V0h-69.2l0.3,115.8c0,16.9-7.7,29.8-25.8,29.8s-26.5-12.5-26.5-38.7H0c0,60,33.5,101.3,94.7,101.3
	S190.1,174.1,190.1,112.8"/>
</svg>
