<?xml version="1.0" encoding="UTF-8"?>
<svg id="Layer_1" xmlns="http://www.w3.org/2000/svg" viewBox="0 0 900 268.33" style="enable-background:new 0 0 891.1 269.6;" xml:space="preserve">
  <path class="cls-1" d="M119.88,0H0V168.23H67.22c0,26.58,8.61,39.31,26.95,39.31s26.2-13.1,26.2-30.32L119.88,0Zm186.01,268.33c-51.28-10.43-83.33-49.18-83.33-107.58V0h-32.19V174.22c0,51.86-25.83,84.67-69.19,94.11h184.7Zm72.02-108.33V0h-85.35V159.99c0,28.82,15.35,47.54,42.67,47.54s42.67-18.72,42.67-47.54M549.45,0h-101.53V160.74c0,58.41-32.04,97.15-83.33,107.58h189.63c-45.37-9.28-77.86-41.3-77.86-93.54h69.06c0,23.64,13.66,33.6,37.67,33.6,14.03,0,32.13-4.06,32.13-18.09,0-33.61-134.05-14.4-134.05-110.05,0-46.84,30.62-72.22,68.28-80.25m61.28,268.33h156.91V60.5h-65.14V0h-97.03c41.81,8.71,73.45,37.5,74.36,85.79h-69.43c0-19.94-15.88-25.85-33.24-25.85-13.66,0-26.96,4.06-26.96,16.62,0,31.76,134.05,10.71,134.05,110.42,0,47.75-34.98,73.3-73.54,81.35M900,60.5h-62.35v207.83h62.35V60.5Z"/>
</svg>