<?xml version="1.0" encoding="UTF-8"?><svg id="Layer_1" xmlns="http://www.w3.org/2000/svg" viewBox="0 0 581.83 253.22"><defs><style>.cls-1{fill:#e838bb;}</style></defs><path class="cls-1" d="M3.83,252.36c3.88-5.28,7.94-10.43,11.84-15.7,3.85-5.21,7.4-10.48,11.77-15.29,3.98-4.38,7.6-8.97,11.33-13.56s8.03-7.87,12.32-11.74c8.95-8.08,16.22-17.72,23.87-26.99,8.08-9.8,15.54-20.05,23.53-29.89,3.96-4.88,8.12-9.59,12.28-14.3,3.85-4.35,7.97-8.59,11.35-13.32s7.12-9.47,11.25-13.83,8.74-8.22,13.11-12.33c8.99-8.46,19.56-14.91,29.17-22.64,4.57-3.67,9.4-7,14-10.64s10.33-6.63,15.66-9.65,10.94-6.12,16.61-8.78c6.07-2.84,12.32-4.88,18.77-6.66,6.04-1.67,12.02-3.76,18.15-5.09,2.73-.59,5.49-.92,8.17-1.7,2.87-.83,5.62-2,8.44-2.95,5.57-1.88,11.19-3.75,16.94-5s11.55-3.75,17.52-4.78c13.02-2.26,26.22-3.86,39.45-3.51,13.57,.37,26.99,2.62,40.21,5.56,12.36,2.75,23.68,7.27,35.16,12.56,5.46,2.51,11.11,4.72,16.26,7.83,5.29,3.19,10.43,6.65,15.69,9.88,5.33,3.27,10.02,6.93,14.64,11.12s9.23,7.85,13.62,12.02c9.07,8.62,16.75,19.15,23.79,29.46,7.05,10.35,14.05,20.7,21.27,30.94,3.66,5.2,7.61,10.2,11.03,15.57s6.73,10.75,9.98,16.17c3.12,5.2,5.44,10.82,7.9,16.35s5.89,10.84,8.19,16.53c.88,2.18,1.71,4.43,3,6.42,.44,.68,3.03,3.67,2.29,4.26-2.02,1.59,.83,4.4,2.83,2.83,3.3-2.59-.04-6.64-1.66-9.1-1.42-2.17-2.25-4.65-3.24-7.03-1.17-2.8-2.74-5.33-4.17-7.99-3.03-5.62-5.28-11.63-8.03-17.38s-6.41-11.24-9.77-16.78c-6.76-11.17-14.6-21.67-22.2-32.28-7.6-10.6-14.53-21.62-22.39-32.04-3.83-5.08-7.73-10.13-12.06-14.8s-9.04-8.56-13.75-12.64c-4.44-3.84-8.57-7.98-13.41-11.33-5.25-3.64-10.85-6.75-16.19-10.24-10.48-6.86-22.24-11.82-33.77-16.67-12.25-5.15-25.07-8.09-38.13-10.35-25.83-4.46-53.29-4.12-78.42,3.85-5.8,1.84-11.75,2.94-17.54,4.86s-11.4,4.22-17.22,5.48c-6.25,1.36-12.3,2.91-18.46,4.67s-12.5,3.29-18.51,5.7-12.06,5.51-17.86,8.7-11.27,6.06-16.62,9.48-9.74,7.35-14.62,10.93-9.54,7.77-14.56,11.34c-5.2,3.7-10.58,6.99-15.33,11.28-4.46,4.03-8.91,8.11-13.26,12.25s-8.59,8.59-12.09,13.38c-3.8,5.19-7.67,10.09-11.94,14.91-17.15,19.39-32.29,40.36-49.01,60.12-3.99,4.71-8.17,9.28-12.76,13.42s-9.08,7.67-12.92,12.5-7.42,9.16-11.41,13.56c-4.35,4.82-7.87,10.14-11.71,15.35s-7.96,10.42-11.84,15.7c-1.53,2.08,1.94,4.07,3.45,2.02h0Z"/><path class="cls-1" d="M575.74,194.71c1.41-4.41,1.78-9.01,2.43-13.57,.61-4.23,1.71-8.24,3.4-12.17l-3.66-1.54c-.56,2.56-1.37,5.06-1.84,7.64s-.66,5.32-1.2,7.96-1.46,4.95-2.17,7.43-1.42,5-2.64,7.31l3.73,1.01,.05-.65c.2-2.57-3.8-2.55-4,0l-.05,.65c-.16,1.99,2.82,2.71,3.73,1.01,1.25-2.35,2.07-4.86,2.8-7.4s1.75-5.18,2.33-7.84,.79-5.3,1.22-7.95,1.32-5.38,1.91-8.09c.21-.97-.21-1.98-1.16-2.36-.83-.33-2.1-.11-2.5,.82-1.77,4.11-3.07,8.22-3.74,12.66-.7,4.71-1.05,9.47-2.5,14.04-.78,2.46,3.08,3.51,3.86,1.06h0Z"/><path class="cls-1" d="M572.83,192.18c-5.12-.41-9.72-3.06-14.02-5.66-2.17-1.31-4.29-2.74-6.6-3.79-1.22-.55-2.48-1.02-3.6-1.77-1.02-.69-1.95-1.45-3.08-1.96-1.99-.89-4.09,1.4-2.42,3.14,4.24,4.44,9.62,7.53,14.51,11.17,5.14,3.84,9.57,8.54,14.93,12.1,1.88,1.25,4.12-1.63,2.42-3.14l-.73-.65c-1.92-1.71-4.76,1.11-2.83,2.83l.73,.65,2.42-3.14c-5.23-3.48-9.6-8.08-14.6-11.86-4.71-3.56-9.92-6.49-14.02-10.79l-2.42,3.14c1.19,.53,2.16,1.36,3.24,2.06s2.42,1.19,3.63,1.75c2.49,1.15,4.77,2.73,7.13,4.13,4.74,2.84,9.73,5.33,15.31,5.77,2.57,.2,2.55-3.8,0-4h0Z"/></svg>