<svg version="1.1" id="Layer_1" xmlns="http://www.w3.org/2000/svg" xmlns:xlink="http://www.w3.org/1999/xlink" x="0px" y="0px"
	 viewBox="0 0 891.1 269.6" style="enable-background:new 0 0 891.1 269.6;" xml:space="preserve">
<style type="text/css">
	.st0{fill:#020000;}
</style>
<g>
	<polygon class="st0" points="694.1,0.1 694.1,62.4 758.1,62.4 758.1,269.7 827,269.7 827,62.4 891.1,62.4 891.1,0.1 	"/>
	<path class="st0" d="M544.2,78.2c0-12.4,13.1-16.4,26.5-16.4c17.1,0,32.7,5.8,32.7,25.4h68.3C670.6,29.4,624.8,0,570.7,0
		c-48.3,0-94.5,24.7-94.5,81.8c0,94.1,131.9,75.2,131.9,108.3c0,13.8-17.8,17.8-31.6,17.8c-23.6,0-37.1-9.8-37.1-33.1h-68
		c0,61.8,46.2,94.8,105,94.8c46.9,0,99.6-24.7,99.6-82.8C676.1,88.7,544.2,109.5,544.2,78.2"/>
	<path class="st0" d="M443.6,161V0.1h-68.9v160.2c0,28.4-15.1,46.8-42,46.8c-26.9,0-42-18.4-42-46.8V0.1h-68.9V161
		c0,67.8,43.8,108.6,110.9,108.6S443.5,228.8,443.6,161"/>
	<path class="st0" d="M190.1,174.3V0.1h-69.4l0.5,177.2c0,16.9-7.7,29.8-25.8,29.8c-18,0-26.5-12.5-26.5-38.7H0
		c0,60,33.5,101.3,94.7,101.3S190.1,235.5,190.1,174.3"/>
</g>
</svg>
